<mxfile host="app.diagrams.net" modified="2024-01-25T07:42:24.423Z" agent="Mozilla/5.0 (Windows NT 10.0; Win64; x64) AppleWebKit/537.36 (KHTML, like Gecko) Chrome/120.0.0.0 Safari/537.36" etag="PN4sK_FWy8x8QPKSI4ET" version="22.1.16" type="github">
  <diagram id="R2lEEEUBdFMjLlhIrx00" name="Page-1">
    <mxGraphModel dx="1235" dy="624" grid="1" gridSize="10" guides="1" tooltips="1" connect="1" arrows="1" fold="1" page="1" pageScale="1" pageWidth="850" pageHeight="1100" math="0" shadow="0" extFonts="Permanent Marker^https://fonts.googleapis.com/css?family=Permanent+Marker">
      <root>
        <mxCell id="0" />
        <mxCell id="1" parent="0" />
        <mxCell id="TnKkdAnqlbAAkz366PMF-24" value="" style="group" vertex="1" connectable="0" parent="1">
          <mxGeometry x="40" y="80" width="480" height="40" as="geometry" />
        </mxCell>
        <mxCell id="TnKkdAnqlbAAkz366PMF-20" value="&lt;font style=&quot;font-size: 14px;&quot;&gt;&lt;u&gt;ID&lt;/u&gt;&lt;/font&gt;" style="rounded=0;whiteSpace=wrap;html=1;fontFamily=Helvetica;fontSize=11;fontColor=default;" vertex="1" parent="TnKkdAnqlbAAkz366PMF-24">
          <mxGeometry width="120" height="40" as="geometry" />
        </mxCell>
        <mxCell id="TnKkdAnqlbAAkz366PMF-21" value="&lt;font style=&quot;font-size: 14px;&quot;&gt;email&lt;/font&gt;" style="rounded=0;whiteSpace=wrap;html=1;fontFamily=Helvetica;fontSize=11;fontColor=default;" vertex="1" parent="TnKkdAnqlbAAkz366PMF-24">
          <mxGeometry x="120" width="120" height="40" as="geometry" />
        </mxCell>
        <mxCell id="TnKkdAnqlbAAkz366PMF-22" value="&lt;font style=&quot;font-size: 14px;&quot;&gt;password&lt;/font&gt;" style="rounded=0;whiteSpace=wrap;html=1;fontFamily=Helvetica;fontSize=11;fontColor=default;" vertex="1" parent="TnKkdAnqlbAAkz366PMF-24">
          <mxGeometry x="240" width="120" height="40" as="geometry" />
        </mxCell>
        <mxCell id="TnKkdAnqlbAAkz366PMF-23" value="&lt;font style=&quot;font-size: 14px;&quot;&gt;image&lt;/font&gt;" style="rounded=0;whiteSpace=wrap;html=1;fontFamily=Helvetica;fontSize=11;fontColor=default;" vertex="1" parent="TnKkdAnqlbAAkz366PMF-24">
          <mxGeometry x="360" width="120" height="40" as="geometry" />
        </mxCell>
        <mxCell id="TnKkdAnqlbAAkz366PMF-27" value="" style="group" vertex="1" connectable="0" parent="1">
          <mxGeometry x="40" y="200" width="480" height="40" as="geometry" />
        </mxCell>
        <mxCell id="TnKkdAnqlbAAkz366PMF-28" value="&lt;font style=&quot;font-size: 14px;&quot;&gt;&lt;u&gt;ID&lt;/u&gt;&lt;/font&gt;" style="rounded=0;whiteSpace=wrap;html=1;fontFamily=Helvetica;fontSize=11;fontColor=default;" vertex="1" parent="TnKkdAnqlbAAkz366PMF-27">
          <mxGeometry width="120" height="40" as="geometry" />
        </mxCell>
        <mxCell id="TnKkdAnqlbAAkz366PMF-29" value="&lt;font style=&quot;font-size: 14px;&quot;&gt;email&lt;/font&gt;" style="rounded=0;whiteSpace=wrap;html=1;fontFamily=Helvetica;fontSize=11;fontColor=default;" vertex="1" parent="TnKkdAnqlbAAkz366PMF-27">
          <mxGeometry x="120" width="120" height="40" as="geometry" />
        </mxCell>
        <mxCell id="TnKkdAnqlbAAkz366PMF-30" value="&lt;font style=&quot;font-size: 14px;&quot;&gt;password&lt;/font&gt;" style="rounded=0;whiteSpace=wrap;html=1;fontFamily=Helvetica;fontSize=11;fontColor=default;" vertex="1" parent="TnKkdAnqlbAAkz366PMF-27">
          <mxGeometry x="240" width="120" height="40" as="geometry" />
        </mxCell>
        <mxCell id="TnKkdAnqlbAAkz366PMF-31" value="&lt;font style=&quot;font-size: 14px;&quot;&gt;image&lt;/font&gt;" style="rounded=0;whiteSpace=wrap;html=1;fontFamily=Helvetica;fontSize=11;fontColor=default;" vertex="1" parent="TnKkdAnqlbAAkz366PMF-27">
          <mxGeometry x="360" width="120" height="40" as="geometry" />
        </mxCell>
        <mxCell id="TnKkdAnqlbAAkz366PMF-32" value="" style="group" vertex="1" connectable="0" parent="1">
          <mxGeometry x="40" y="320" width="480" height="40" as="geometry" />
        </mxCell>
        <mxCell id="TnKkdAnqlbAAkz366PMF-33" value="&lt;font style=&quot;font-size: 14px;&quot;&gt;&lt;u&gt;Order_id&lt;/u&gt;&lt;/font&gt;" style="rounded=0;whiteSpace=wrap;html=1;fontFamily=Helvetica;fontSize=11;fontColor=default;" vertex="1" parent="TnKkdAnqlbAAkz366PMF-32">
          <mxGeometry width="120" height="40" as="geometry" />
        </mxCell>
        <mxCell id="TnKkdAnqlbAAkz366PMF-34" value="&lt;span style=&quot;font-size: 14px;&quot;&gt;seller_id&lt;/span&gt;" style="rounded=0;whiteSpace=wrap;html=1;fontFamily=Helvetica;fontSize=11;fontColor=default;" vertex="1" parent="TnKkdAnqlbAAkz366PMF-32">
          <mxGeometry x="120" width="120" height="40" as="geometry" />
        </mxCell>
        <mxCell id="TnKkdAnqlbAAkz366PMF-35" value="&lt;font style=&quot;font-size: 14px;&quot;&gt;customer_id&lt;/font&gt;" style="rounded=0;whiteSpace=wrap;html=1;fontFamily=Helvetica;fontSize=11;fontColor=default;" vertex="1" parent="TnKkdAnqlbAAkz366PMF-32">
          <mxGeometry x="240" width="120" height="40" as="geometry" />
        </mxCell>
        <mxCell id="TnKkdAnqlbAAkz366PMF-36" value="&lt;font style=&quot;font-size: 14px;&quot;&gt;total_price&lt;/font&gt;" style="rounded=0;whiteSpace=wrap;html=1;fontFamily=Helvetica;fontSize=11;fontColor=default;" vertex="1" parent="TnKkdAnqlbAAkz366PMF-32">
          <mxGeometry x="360" width="120" height="40" as="geometry" />
        </mxCell>
        <mxCell id="TnKkdAnqlbAAkz366PMF-45" value="" style="group" vertex="1" connectable="0" parent="1">
          <mxGeometry x="40" y="640" width="480" height="40" as="geometry" />
        </mxCell>
        <mxCell id="TnKkdAnqlbAAkz366PMF-46" value="&lt;font style=&quot;font-size: 14px;&quot;&gt;&lt;u&gt;id&lt;/u&gt;&lt;/font&gt;" style="rounded=0;whiteSpace=wrap;html=1;fontFamily=Helvetica;fontSize=11;fontColor=default;" vertex="1" parent="TnKkdAnqlbAAkz366PMF-45">
          <mxGeometry width="120" height="40" as="geometry" />
        </mxCell>
        <mxCell id="TnKkdAnqlbAAkz366PMF-47" value="&lt;span style=&quot;font-size: 14px;&quot;&gt;Name&lt;/span&gt;" style="rounded=0;whiteSpace=wrap;html=1;fontFamily=Helvetica;fontSize=11;fontColor=default;" vertex="1" parent="TnKkdAnqlbAAkz366PMF-45">
          <mxGeometry x="120" width="120" height="40" as="geometry" />
        </mxCell>
        <mxCell id="TnKkdAnqlbAAkz366PMF-48" value="&lt;font style=&quot;font-size: 14px;&quot;&gt;iamge&lt;/font&gt;" style="rounded=0;whiteSpace=wrap;html=1;fontFamily=Helvetica;fontSize=11;fontColor=default;" vertex="1" parent="TnKkdAnqlbAAkz366PMF-45">
          <mxGeometry x="240" width="120" height="40" as="geometry" />
        </mxCell>
        <mxCell id="TnKkdAnqlbAAkz366PMF-53" value="" style="group" vertex="1" connectable="0" parent="1">
          <mxGeometry x="40" y="440" width="840" height="40" as="geometry" />
        </mxCell>
        <mxCell id="TnKkdAnqlbAAkz366PMF-44" value="" style="group" vertex="1" connectable="0" parent="TnKkdAnqlbAAkz366PMF-53">
          <mxGeometry width="720" height="40" as="geometry" />
        </mxCell>
        <mxCell id="TnKkdAnqlbAAkz366PMF-37" value="" style="group" vertex="1" connectable="0" parent="TnKkdAnqlbAAkz366PMF-44">
          <mxGeometry y="80" width="520" height="40" as="geometry" />
        </mxCell>
        <mxCell id="TnKkdAnqlbAAkz366PMF-38" value="&lt;font style=&quot;font-size: 14px;&quot;&gt;&lt;u&gt;id&lt;/u&gt;&lt;/font&gt;" style="rounded=0;whiteSpace=wrap;html=1;fontFamily=Helvetica;fontSize=11;fontColor=default;" vertex="1" parent="TnKkdAnqlbAAkz366PMF-37">
          <mxGeometry width="80" height="40" as="geometry" />
        </mxCell>
        <mxCell id="TnKkdAnqlbAAkz366PMF-39" value="&lt;span style=&quot;font-size: 14px;&quot;&gt;Name&lt;/span&gt;" style="rounded=0;whiteSpace=wrap;html=1;fontFamily=Helvetica;fontSize=11;fontColor=default;" vertex="1" parent="TnKkdAnqlbAAkz366PMF-37">
          <mxGeometry x="80" width="80" height="40" as="geometry" />
        </mxCell>
        <mxCell id="TnKkdAnqlbAAkz366PMF-40" value="&lt;font style=&quot;font-size: 14px;&quot;&gt;image&lt;/font&gt;" style="rounded=0;whiteSpace=wrap;html=1;fontFamily=Helvetica;fontSize=11;fontColor=default;" vertex="1" parent="TnKkdAnqlbAAkz366PMF-37">
          <mxGeometry x="160" width="80" height="40" as="geometry" />
        </mxCell>
        <mxCell id="TnKkdAnqlbAAkz366PMF-41" value="&lt;font style=&quot;font-size: 14px;&quot;&gt;price&lt;/font&gt;" style="rounded=0;whiteSpace=wrap;html=1;fontFamily=Helvetica;fontSize=11;fontColor=default;" vertex="1" parent="TnKkdAnqlbAAkz366PMF-37">
          <mxGeometry x="240" width="80" height="40" as="geometry" />
        </mxCell>
        <mxCell id="TnKkdAnqlbAAkz366PMF-42" value="&lt;span style=&quot;font-size: 14px;&quot;&gt;image&lt;/span&gt;" style="rounded=0;whiteSpace=wrap;html=1;fontFamily=Helvetica;fontSize=11;fontColor=default;" vertex="1" parent="TnKkdAnqlbAAkz366PMF-37">
          <mxGeometry x="320" width="80" height="40" as="geometry" />
        </mxCell>
        <mxCell id="TnKkdAnqlbAAkz366PMF-43" value="&lt;span style=&quot;font-size: 14px;&quot;&gt;rating&lt;/span&gt;" style="rounded=0;whiteSpace=wrap;html=1;fontFamily=Helvetica;fontSize=11;fontColor=default;" vertex="1" parent="TnKkdAnqlbAAkz366PMF-37">
          <mxGeometry x="400" width="80" height="40" as="geometry" />
        </mxCell>
        <mxCell id="TnKkdAnqlbAAkz366PMF-50" value="&lt;span style=&quot;font-size: 14px;&quot;&gt;category_id&lt;/span&gt;" style="rounded=0;whiteSpace=wrap;html=1;fontFamily=Helvetica;fontSize=11;fontColor=default;" vertex="1" parent="TnKkdAnqlbAAkz366PMF-44">
          <mxGeometry x="480" y="80" width="120" height="40" as="geometry" />
        </mxCell>
        <mxCell id="TnKkdAnqlbAAkz366PMF-65" value="&lt;font style=&quot;font-size: 14px;&quot;&gt;&lt;u&gt;Order_id&lt;/u&gt;&lt;/font&gt;" style="rounded=0;whiteSpace=wrap;html=1;fontFamily=Helvetica;fontSize=11;fontColor=default;" vertex="1" parent="1">
          <mxGeometry x="40" y="420" width="120" height="40" as="geometry" />
        </mxCell>
        <mxCell id="TnKkdAnqlbAAkz366PMF-66" value="&lt;span style=&quot;font-size: 14px;&quot;&gt;&lt;u&gt;customer_id&lt;/u&gt;&lt;/span&gt;" style="rounded=0;whiteSpace=wrap;html=1;fontFamily=Helvetica;fontSize=11;fontColor=default;" vertex="1" parent="1">
          <mxGeometry x="160" y="420" width="120" height="40" as="geometry" />
        </mxCell>
        <mxCell id="TnKkdAnqlbAAkz366PMF-67" value="&lt;font style=&quot;font-size: 14px;&quot;&gt;item_id&lt;/font&gt;" style="rounded=0;whiteSpace=wrap;html=1;fontFamily=Helvetica;fontSize=11;fontColor=default;" vertex="1" parent="1">
          <mxGeometry x="280" y="420" width="120" height="40" as="geometry" />
        </mxCell>
      </root>
    </mxGraphModel>
  </diagram>
</mxfile>
